<?xml version="1.0" encoding="UTF-8" standalone="no"?>

<svg
   xmlns:dc="http://purl.org/dc/elements/1.1/"
   xmlns:cc="http://creativecommons.org/ns#"
   xmlns:rdf="http://www.w3.org/1999/02/22-rdf-syntax-ns#"
   xmlns:svg="http://www.w3.org/2000/svg"
   xmlns="http://www.w3.org/2000/svg"
   xmlns:sodipodi="http://sodipodi.sourceforge.net/DTD/sodipodi-0.dtd"
   xmlns:inkscape="http://www.inkscape.org/namespaces/inkscape"
   width="71mm"
   height="71mm"
   viewBox="0 0 251.5748 251.5748"
   id="svg2"
   version="1.1"
   inkscape:version="0.91 r13725"
   sodipodi:docname="archipelago.svg">
  <g
     inkscape:label="Layer 1"
     inkscape:groupmode="layer"
     id="layer1"
     transform="translate(0.21424683,-0.68397294)">
    <g
       id="g4175"
       style="fill:#000000;fill-opacity:1"
       transform="matrix(10,0,0,10,-1292.4314,-568.2594)">
      <g
         id="g4138"
         style="stroke:#c4bc79;stroke-opacity:1;fill:#006600;fill-opacity:1;stroke-width:1.00000006;stroke-miterlimit:4;stroke-dasharray:none;stroke-linejoin:round;stroke-linecap:butt;stroke-dashoffset:0">
        <path
           style="fill:#006600;fill-opacity:1;fill-rule:evenodd;stroke:#c4bc79;stroke-width:1.00000006;stroke-linecap:butt;stroke-linejoin:round;stroke-miterlimit:4;stroke-dasharray:none;stroke-opacity:1;stroke-dashoffset:0"
           d="m 139.65998,57.810048 1.87105,-0.409447 1.2627,0.757614 0,2.020306 -3.03046,2.65165 -2.14658,4.798225 -1.76776,1.388959 -1.01016,-0.252538 -0.50507,-0.757614 0.25254,-3.282996 1.89403,-3.282996 1.13642,-0.631345 0.63135,-0.631345 z"
           id="path3336"
           inkscape:connector-curvature="0"
           sodipodi:nodetypes="cccccccccccccc" />
        <path
           style="fill:#006600;fill-opacity:1;fill-rule:evenodd;stroke:#c4bc79;stroke-width:1.00000006;stroke-linecap:butt;stroke-linejoin:round;stroke-opacity:1;stroke-miterlimit:4;stroke-dasharray:none;stroke-dashoffset:0"
           d="m 133.87743,70.419117 0.80348,0.614703 0.3314,1.11142 0.60599,1.04004 -2.27652,3.841895 -1.07129,4.302921 -1.07129,0.153676 -0.69394,-0.76838 -0.71551,-0.162999 1.67726,-6.137707 z"
           id="path3338"
           inkscape:connector-curvature="0"
           sodipodi:nodetypes="ccccccccccc" />
        <path
           style="fill:#006600;fill-opacity:1;fill-rule:evenodd;stroke:#c4bc79;stroke-width:1.00000006;stroke-linecap:butt;stroke-linejoin:round;stroke-opacity:1;stroke-miterlimit:4;stroke-dasharray:none;stroke-dashoffset:0"
           d="m 144.25731,61.124456 1.93584,1.208202 1.46025,2.9537 1.88358,2.345991 0.5135,1.684826 -0.78684,1.90454 -1.58985,1.125918 -3.67723,0.486256 -5.50692,-0.06281 -0.90746,-0.762209 -0.12436,-1.645328 1.07011,-1.558449 3.02959,-0.9166 3.84891,0.402442 1.03797,-0.37841 0.41235,-0.64457 -0.9965,-1.034662 -0.78533,-2.169199 -1.16641,-1.917671 z"
           id="path3340"
           inkscape:connector-curvature="0"
           sodipodi:nodetypes="cccccccccccccccccccc" />
        <path
           style="fill:#006600;fill-opacity:1;fill-rule:evenodd;stroke:#c4bc79;stroke-width:1.00000006;stroke-linecap:butt;stroke-linejoin:round;stroke-opacity:1;stroke-miterlimit:4;stroke-dasharray:none;stroke-dashoffset:0"
           d="m 148.86566,74.481192 0.62827,3.745666 1.21395,2.059453 3.10226,0.946985 -0.26027,-3.381182 -1.23948,-3.341028 -1.82519,-1.61917 z"
           id="path3342"
           inkscape:connector-curvature="0"
           sodipodi:nodetypes="cccccccc" />
      </g>
    </g>
  </g>
</svg>
